<svg xmlns="http://www.w3.org/2000/svg" width="300" height="1352" viewBox="0 0 300 1352">
  <rect width="100%" height="100%" fill="#2d2d2d"/>
  <rect x="20" y="20" width="260" height="52" rx="4" ry="4" fill="#404040" stroke="#707070" stroke-width="1"/>
  <text x="150" y="46" text-anchor="middle" fill="#f5f5f5" font-size="14" font-family="PingFang SC, Microsoft YaHei, ui-sans-serif, system-ui, sans-serif">你说模糊需求</text>
  <line x1="150" y1="72" x2="150" y2="94" stroke="#9ca3af" stroke-width="1"/><polygon points="150,100 145,93 155,93" fill="#9ca3af"/>
  <rect x="20" y="144" width="260" height="52" rx="4" ry="4" fill="#404040" stroke="#707070" stroke-width="1"/>
  <text x="150" y="166" text-anchor="middle" fill="#f5f5f5" font-size="14" font-family="PingFang SC, Microsoft YaHei, ui-sans-serif, system-ui, sans-serif">.cursor/rules</text>
    <text x="150" y="184" text-anchor="middle" fill="#f5f5f5" font-size="14" font-family="PingFang SC, Microsoft YaHei, ui-sans-serif, system-ui, sans-serif">引导澄清 + 边界条件</text>
  <line x1="150" y1="196" x2="150" y2="218" stroke="#9ca3af" stroke-width="1"/><polygon points="150,224 145,217 155,217" fill="#9ca3af"/>
  <rect x="20" y="268" width="260" height="52" rx="4" ry="4" fill="#404040" stroke="#707070" stroke-width="1"/>
  <text x="150" y="290" text-anchor="middle" fill="#f5f5f5" font-size="14" font-family="PingFang SC, Microsoft YaHei, ui-sans-serif, system-ui, sans-serif">AI 写 milestone</text>
    <text x="150" y="308" text-anchor="middle" fill="#f5f5f5" font-size="14" font-family="PingFang SC, Microsoft YaHei, ui-sans-serif, system-ui, sans-serif">文档</text>
  <line x1="150" y1="320" x2="150" y2="342" stroke="#9ca3af" stroke-width="1"/><polygon points="150,348 145,341 155,341" fill="#9ca3af"/>
  <rect x="20" y="392" width="260" height="52" rx="4" ry="4" fill="#404040" stroke="#707070" stroke-width="1"/>
  <text x="150" y="414" text-anchor="middle" fill="#f5f5f5" font-size="14" font-family="PingFang SC, Microsoft YaHei, ui-sans-serif, system-ui, sans-serif">AI 写代码</text>
    <text x="150" y="432" text-anchor="middle" fill="#f5f5f5" font-size="14" font-family="PingFang SC, Microsoft YaHei, ui-sans-serif, system-ui, sans-serif">+ 本地自测</text>
  <line x1="150" y1="444" x2="150" y2="466" stroke="#9ca3af" stroke-width="1"/><polygon points="150,472 145,465 155,465" fill="#9ca3af"/>
  <polygon points="150,494 270,530 150,566 30,530" fill="#404040" stroke="#707070" stroke-width="1"/>
  <text x="150" y="518" text-anchor="middle" fill="#f5f5f5" font-size="14" font-family="PingFang SC, Microsoft YaHei, ui-sans-serif, system-ui, sans-serif">AI 给出 confirm 摘要</text>
    <text x="150" y="536" text-anchor="middle" fill="#f5f5f5" font-size="14" font-family="PingFang SC, Microsoft YaHei, ui-sans-serif, system-ui, sans-serif">分支名 / commit / diff</text>
    <text x="150" y="554" text-anchor="middle" fill="#f5f5f5" font-size="14" font-family="PingFang SC, Microsoft YaHei, ui-sans-serif, system-ui, sans-serif">你确认?</text>
  <path d="M 12 530 L -8 530 L -8 418 L 20 418" fill="none" stroke="#9ca3af" stroke-width="1"/>
  <rect x="-46" y="512" width="61" height="18" rx="3" fill="#353535" stroke="#555"/><text x="-16" y="526" text-anchor="middle" fill="#f5f5f5" font-size="11" font-family="PingFang SC, Microsoft YaHei, ui-sans-serif, system-ui, sans-serif">n / 改</text>
  <line x1="150" y1="566" x2="150" y2="588" stroke="#9ca3af" stroke-width="1"/><polygon points="150,594 145,587 155,587" fill="#9ca3af"/>
  <rect x="174" y="570" width="36" height="18" rx="3" fill="#353535" stroke="#555"/><text x="192" y="584" text-anchor="middle" fill="#f5f5f5" font-size="11" font-family="PingFang SC, Microsoft YaHei, ui-sans-serif, system-ui, sans-serif">y</text>
  <rect x="20" y="616" width="260" height="52" rx="4" ry="4" fill="#404040" stroke="#707070" stroke-width="1"/>
  <text x="150" y="638" text-anchor="middle" fill="#f5f5f5" font-size="14" font-family="PingFang SC, Microsoft YaHei, ui-sans-serif, system-ui, sans-serif">AI 创建 feat 分支</text>
    <text x="150" y="656" text-anchor="middle" fill="#f5f5f5" font-size="14" font-family="PingFang SC, Microsoft YaHei, ui-sans-serif, system-ui, sans-serif">commit + push</text>
  <line x1="150" y1="668" x2="150" y2="690" stroke="#9ca3af" stroke-width="1"/><polygon points="150,696 145,689 155,689" fill="#9ca3af"/>
  <rect x="20" y="740" width="260" height="52" rx="4" ry="4" fill="#404040" stroke="#707070" stroke-width="1"/>
  <text x="150" y="762" text-anchor="middle" fill="#f5f5f5" font-size="14" font-family="PingFang SC, Microsoft YaHei, ui-sans-serif, system-ui, sans-serif">GitHub Actions CI</text>
    <text x="150" y="780" text-anchor="middle" fill="#f5f5f5" font-size="14" font-family="PingFang SC, Microsoft YaHei, ui-sans-serif, system-ui, sans-serif">lint + typecheck + build</text>
  <line x1="150" y1="792" x2="150" y2="814" stroke="#9ca3af" stroke-width="1"/><polygon points="150,820 145,813 155,813" fill="#9ca3af"/>
  <rect x="20" y="864" width="260" height="52" rx="4" ry="4" fill="#404040" stroke="#707070" stroke-width="1"/>
  <text x="150" y="886" text-anchor="middle" fill="#f5f5f5" font-size="14" font-family="PingFang SC, Microsoft YaHei, ui-sans-serif, system-ui, sans-serif">gh pr create draft</text>
    <text x="150" y="904" text-anchor="middle" fill="#f5f5f5" font-size="14" font-family="PingFang SC, Microsoft YaHei, ui-sans-serif, system-ui, sans-serif">指派 owner 为 reviewer</text>
  <line x1="150" y1="916" x2="150" y2="938" stroke="#9ca3af" stroke-width="1"/><polygon points="150,944 145,937 155,937" fill="#9ca3af"/>
  <rect x="20" y="988" width="260" height="52" rx="4" ry="4" fill="#404040" stroke="#707070" stroke-width="1"/>
  <text x="150" y="1010" text-anchor="middle" fill="#f5f5f5" font-size="14" font-family="PingFang SC, Microsoft YaHei, ui-sans-serif, system-ui, sans-serif">你自查后</text>
    <text x="150" y="1028" text-anchor="middle" fill="#f5f5f5" font-size="14" font-family="PingFang SC, Microsoft YaHei, ui-sans-serif, system-ui, sans-serif">mark ready</text>
  <line x1="150" y1="1040" x2="150" y2="1062" stroke="#9ca3af" stroke-width="1"/><polygon points="150,1068 145,1061 155,1061" fill="#9ca3af"/>
  <rect x="20" y="1112" width="260" height="52" rx="4" ry="4" fill="#404040" stroke="#707070" stroke-width="1"/>
  <text x="150" y="1134" text-anchor="middle" fill="#f5f5f5" font-size="14" font-family="PingFang SC, Microsoft YaHei, ui-sans-serif, system-ui, sans-serif">@DavidZhan23</text>
    <text x="150" y="1152" text-anchor="middle" fill="#f5f5f5" font-size="14" font-family="PingFang SC, Microsoft YaHei, ui-sans-serif, system-ui, sans-serif">手动 merge</text>
  <line x1="150" y1="1164" x2="150" y2="1186" stroke="#9ca3af" stroke-width="1"/><polygon points="150,1192 145,1185 155,1185" fill="#9ca3af"/>
  <rect x="20" y="1236" width="260" height="52" rx="4" ry="4" fill="#404040" stroke="#707070" stroke-width="1"/>
  <text x="150" y="1258" text-anchor="middle" fill="#f5f5f5" font-size="14" font-family="PingFang SC, Microsoft YaHei, ui-sans-serif, system-ui, sans-serif">owner CD</text>
    <text x="150" y="1276" text-anchor="middle" fill="#f5f5f5" font-size="14" font-family="PingFang SC, Microsoft YaHei, ui-sans-serif, system-ui, sans-serif">（不在你掌控）</text>
  </svg>
