<svg width="320" height="320" viewBox="0 0 320 320" fill="none" xmlns="http://www.w3.org/2000/svg">
  <g opacity="0.92">
    <path d="M162 38L110 74L96 138L111 214L162 258L211 214L226 138L212 74L162 38Z" fill="#C9FFC8"/>
    <path d="M162 54L124 82L112 140L124 199L162 231L198 199L210 140L198 82L162 54Z" fill="#2B1944"/>
    <path d="M146 138L129 165L146 179L162 160L178 179L195 165L178 138H146Z" fill="#9B65FF"/>
    <path d="M124 106L110 120L116 146L129 132L124 106Z" fill="#A7F04B"/>
    <path d="M200 106L214 120L208 146L195 132L200 106Z" fill="#A7F04B"/>
    <path d="M142 193H183L175 212H150L142 193Z" fill="#C9FFC8"/>
    <path d="M148 74H176L170 95H154L148 74Z" fill="#A7F04B"/>
    <path d="M106 205L90 236L116 225L126 198L106 205Z" fill="#7B48D2"/>
    <path d="M218 205L234 236L208 225L198 198L218 205Z" fill="#7B48D2"/>
  </g>
</svg>
