<svg width="320" height="320" viewBox="0 0 320 320" fill="none" xmlns="http://www.w3.org/2000/svg">
  <g opacity="0.92">
    <path d="M162 34L104 78L90 150L110 222L162 268L214 222L234 150L220 78L162 34Z" fill="#FFE1C4"/>
    <path d="M162 52L122 84L110 150L124 206L162 240L200 206L214 150L202 84L162 52Z" fill="#4A1018"/>
    <path d="M136 141H188L180 171H144L136 141Z" fill="#FF4B3E"/>
    <path d="M128 109L104 132L114 166L138 143L128 109Z" fill="#FFB84D"/>
    <path d="M196 109L220 132L210 166L186 143L196 109Z" fill="#FFB84D"/>
    <path d="M144 196H181L174 216H151L144 196Z" fill="#FFE1C4"/>
    <path d="M146 78H178L172 100H152L146 78Z" fill="#FFD34D"/>
    <path d="M102 216L84 248L114 236L125 207L102 216Z" fill="#D83A45"/>
    <path d="M222 216L240 248L210 236L199 207L222 216Z" fill="#D83A45"/>
  </g>
</svg>
